<svg xmlns="http://www.w3.org/2000/svg" width="32" height="32" viewBox="0 0 32 32" fill="none">
  <rect width="32" height="32" rx="6" fill="#1a1a2e"/>
  <path d="M16 6C12.5 6 10 8 10 11C9 11.5 8 13 8 15C8 17 9 18.5 10 19C10 21 11 23 13 24C14 25 15 25.5 16 25.5C17 25.5 18 25 19 24C21 23 22 21 22 19C23 18.5 24 17 24 15C24 13 23 11.5 22 11C22 8 19.5 6 16 6Z" fill="#6366f1"/>
  <path d="M13 11C13 11 14 12 16 12C18 12 19 11 19 11" stroke="#a5b4fc" stroke-width="1.5" stroke-linecap="round"/>
  <path d="M12 15C12 15 13.5 16.5 16 16.5C18.5 16.5 20 15 20 15" stroke="#a5b4fc" stroke-width="1.5" stroke-linecap="round"/>
  <path d="M13 19C13 19 14.5 20.5 16 20.5C17.5 20.5 19 19 19 19" stroke="#a5b4fc" stroke-width="1.5" stroke-linecap="round"/>
  <circle cx="16" cy="11" r="1" fill="#a5b4fc"/>
  <path d="M16 12V16.5" stroke="#a5b4fc" stroke-width="1.5" stroke-linecap="round"/>
  <path d="M16 17V20.5" stroke="#a5b4fc" stroke-width="1.2" stroke-linecap="round"/>
</svg>
